<?xml version="1.0" encoding="UTF-8"?>
<svg xmlns="http://www.w3.org/2000/svg" version="1.1" viewBox="0 0 39.77 39.66">
  <!-- Generator: Adobe Illustrator 28.7.10, SVG Export Plug-In . SVG Version: 1.2.0 Build 236)  -->
  <g>
    <path 
    d="M31.5.12H8.27C3.82.12.22,3.73.22,8.18v23.22c0,4.45,3.61,8.05,8.05,8.05h23.22c4.45,0,8.05-3.61,8.05-8.05V8.18C39.55,3.73,35.94.12,31.5.12Z"
    fill="#FFFDF6"/>
    <g id="Layer_1">
      <path d="M31.5.12H8.27C3.82.12.22,3.73.22,8.18v23.22c0,4.45,3.61,8.05,8.05,8.05h23.22c4.45,0,8.05-3.61,8.05-8.05V8.18C39.55,3.73,35.94.12,31.5.12ZM7.28,6.42l.65-.58c.58-.52,1.47-.47,1.99.12.33.38.64.73.72.82.21.23.41.47.62.7l.67.76c.23.27.47.53.7.8.24.27.48.54.72.81.24.27.48.54.71.81.23.26.46.52.69.78.22.24.43.49.65.73.2.22.39.44.59.67.17.19.33.38.5.58.14.16.28.32.46.44.16.11.37.16.56.16.37,0,.66-.29.8-.61.05-.12.08-.24.09-.36.09-.84,0-3.89.02-6.34v-.62c0-.78.63-1.41,1.4-1.41h.82c.78,0,1.4.63,1.4,1.4v.47c0,.57-.02,2.33,0,4.12.02,1.32-.01,3.12-.24,3.92-.53,1.83-1.77,2.77-3.41,3.16-.86.21-2.57.31-4.16-1.39l-7.08-7.94c-.52-.58-.47-1.47.11-1.98ZM15.87,25.68l-7.94,7.08c-.58.52-1.47.47-1.98-.11l-.58-.65c-.52-.58-.47-1.47.12-1.99.38-.33.73-.65.82-.72.23-.21.47-.41.7-.62.25-.22.51-.45.76-.67.27-.23.53-.47.8-.7.27-.24.54-.48.81-.72.27-.24.54-.48.81-.71.26-.23.52-.46.78-.69.24-.22.49-.43.73-.65.22-.2.44-.39.67-.59.19-.17.38-.33.58-.5.16-.14.32-.28.44-.46.11-.16.16-.37.16-.56,0-.37-.29-.66-.61-.8-.12-.05-.24-.08-.36-.09-.84-.09-3.89,0-6.34-.02h-.62c-.78,0-1.41-.63-1.41-1.4v-.82c0-.78.63-1.4,1.4-1.4h.47c.57,0,2.33.02,4.12,0,1.32-.02,3.12.01,3.92.24,1.83.53,2.77,1.77,3.16,3.41.21.86.31,2.57-1.39,4.16ZM32.37,33.16l-.65.58c-.58.52-1.47.47-1.99-.12-.33-.38-.65-.73-.72-.82-.21-.23-.41-.47-.62-.7-.22-.25-.45-.51-.67-.76-.23-.27-.47-.53-.7-.8-.24-.27-.48-.54-.72-.81-.24-.27-.48-.54-.71-.81-.23-.26-.46-.52-.69-.78-.22-.24-.43-.49-.65-.73-.2-.22-.39-.44-.59-.67-.17-.19-.33-.38-.5-.58-.14-.16-.28-.32-.46-.44-.16-.11-.37-.16-.56-.16-.37,0-.66.29-.8.61-.05.12-.08.24-.09.36-.09.84,0,3.89-.02,6.34v.62c0,.78-.63,1.41-1.4,1.41h-.82c-.78,0-1.4-.63-1.4-1.4v-.47c0-.57.02-2.33,0-4.12-.02-1.32.01-3.12.24-3.92.53-1.83,1.77-2.77,3.41-3.16.86-.21,2.57-.31,4.16,1.39l7.08,7.94c.52.58.47,1.47-.11,1.98ZM35.58,20.3c0,.78-.63,1.4-1.4,1.4h-.47c-.57,0-2.33-.02-4.12,0-1.32.02-3.12-.01-3.92-.24-1.83-.53-2.77-1.77-3.16-3.41-.21-.86-.31-2.57,1.39-4.16l7.94-7.08c.58-.52,1.47-.47,1.98.11l.58.65c.52.58.47,1.47-.12,1.99-.38.33-.73.65-.82.72-.23.21-.47.41-.7.62l-.76.67c-.27.23-.53.47-.8.7-.27.24-.54.48-.81.72-.27.24-.54.48-.81.71-.26.23-.52.46-.78.69-.24.22-.49.43-.73.65-.22.2-.44.39-.67.59-.19.17-.38.33-.58.5-.16.14-.32.28-.44.46-.11.16-.16.37-.16.56,0,.37.29.66.61.8.12.05.24.08.36.09.84.09,3.89,0,6.34.02h.62c.78,0,1.41.63,1.41,1.4v.82Z" fill="#181818"/>
    </g>
  </g>
</svg>