<?xml version="1.0" encoding="UTF-8"?>
<svg id="Layer_1" xmlns="http://www.w3.org/2000/svg" version="1.1" viewBox="0 0 256.78 39.58">
  <!-- Generator: Adobe Illustrator 30.0.0, SVG Export Plug-In . SVG Version: 2.1.1 Build 123)  -->
  <defs>
    <style>
      .st0 {
        fill: #181818;
      }
    </style>
  </defs>
  <g>
    <path class="st0" d="M51.22,32.94V6.13c0-.46.37-.83.83-.83h3.65c.46,0,.83.37.83.83v26.81c0,.46-.37.83-.83.83h-3.65c-.46,0-.83-.37-.83-.83Z"/>
    <path class="st0" d="M65.24,13.63v19.32c0,.46-.37.83-.83.83h-3.4c-.46,0-.83-.37-.83-.83V13.63c0-.46.37-.83.83-.83h3.4c.46,0,.83.37.83.83ZM78.7,19.8v13.15c0,.46-.37.83-.83.83h-3.4c-.46,0-.83-.37-.83-.83v-12.7c0-1.79-1.58-3.49-4.2-3.49-2.42,0-4.2,1.71-4.2,3.49,0-4.35,1.44-7.49,4.7-7.91,3.59-.47,8.76,2.18,8.76,7.46Z"/>
    <path class="st0" d="M114.1,24.67h-15.55c.5,3.44,2.83,5.08,5.22,5.11,1.59-.02,3.16-.76,4.17-2.27h5.53c-1.54,4.31-5.43,6.7-9.7,6.73-5.52-.05-10.4-4-10.4-11s5-11,10.4-11,10.4,4.03,10.4,11c0,.49-.02.96-.07,1.42h0ZM108.82,20.81c-1.04-2.69-2.88-4.06-5.05-4.1-2.17.03-4.02,1.4-5.06,4.1h10.11Z"/>
    <path class="st0" d="M128.97,13.4v2.97c0,.53-.48.92-1,.81-.45-.09-1.05-.17-1.79-.17-2.92,0-4.45,1.61-4.45,3.8v12.15c0,.46-.37.83-.83.83h-3.4c-.46,0-.83-.37-.83-.83V13.62c0-.46.37-.83.83-.83h3.4c.46,0,.83.37.83.83v6.93c0-5.25,2.26-8.26,4.45-8.26.76,0,1.49.11,2.19.3.36.1.6.43.6.8h0Z"/>
    <path class="st0" d="M135.85,6.14v26.81c0,.46-.37.83-.83.83h-3.4c-.46,0-.83-.37-.83-.83V6.14c0-.46.37-.83.83-.83h3.4c.46,0,.83.37.83.83ZM135.85,21.54v-.14.14ZM149.31,19.84v13.11c0,.46-.37.83-.83.83h-3.4c-.46,0-.83-.37-.83-.83v-11.41c0-2.59-1.04-4.95-4.2-4.95-2.91,0-4.16,2.02-4.2,4.81.04-5.64,2.69-8.83,5.77-9.08,3.65-.3,7.69,2.65,7.69,7.51h0Z"/>
    <path class="st0" d="M165.51,25.77c0,3.98-.71,7.99-4.55,8.43-5.79.67-8.66-3.74-8.66-7.43v-13.15c0-.46.37-.83.83-.83h3.4c.46,0,.83.37.83.83v13.15c0,1.79,1.58,3.04,4.2,3.04s3.95-1.86,3.95-4.05h0ZM170.57,13.62v19.32c0,.46-.37.83-.83.83h-3.4c-.46,0-.83-.37-.83-.83V13.62c0-.46.37-.83.83-.83h3.4c.46,0,.83.37.83.83Z"/>
    <path class="st0" d="M179.13,13.62v19.33c0,.46-.37.83-.83.83h-3.4c-.46,0-.83-.37-.83-.83V13.62c0-.46.37-.83.83-.83h3.4c.46,0,.83.37.83.83ZM204.04,19.55v13.4c0,.46-.37.83-.83.83h-3.4c-.46,0-.83-.37-.83-.83v-13.15c0-1.79-1.91-3.04-3.7-3.04s-3.7.99-3.7,3.04v13.15c0,.46-.37.83-.83.83h-3.4c-.46,0-.83-.37-.83-.83v-13.15c0-2.06-1.91-3.04-3.7-3.04s-3.7,1.26-3.7,3.04c0-5.19,2.37-7.16,4.75-7.48,2.52-.24,5.04,1.24,6.23,3.6.87-2.11,3.83-3.63,6.23-3.63,4.64,0,7.71,3.07,7.71,7.25h0Z"/>
    <path class="st0" d="M224.55,18.19v14.72c0,.46-.37.83-.83.83h-3.4c-.46,0-.83-.37-.83-.83v-14.21c0,4.34-1.4,5.37-3.32,5.37h-1.15c-1.33,0-3.39.39-3.63,2.57-.19,1.77,1.27,3.37,3.63,3.37s4.47-1.6,4.47-3.39c0,4.88-1.98,7.52-5.36,7.62-5.14.16-7.81-3.57-7.81-6.94,0-4.28,3.56-6.94,7.86-6.94h3.16c1.28,0,2.19-.74,2.14-1.66-.1-1.57-1.4-2.39-3.54-2.39-1.23,0-2.42.66-2.99,1.54-.15.23-.39.37-.66.37h-3.51c-.57,0-.98-.57-.79-1.11,1.29-3.53,4.69-4.86,7.95-4.86,3.74,0,8.61,1.84,8.61,5.93h0Z"/>
    <path class="st0" d="M232.94,13.63v19.32c0,.46-.37.83-.83.83h-3.4c-.46,0-.83-.37-.83-.83V13.63c0-.46.37-.83.83-.83h3.4c.46,0,.83.37.83.83ZM246.4,19.8v12.55c0,.79-.64,1.43-1.43,1.43h-2.8c-.46,0-.83-.37-.83-.83v-12.7c0-1.79-1.58-3.49-4.2-3.49-2.42,0-4.2,1.71-4.2,3.49,0-4.35,1.44-7.49,4.7-7.91,3.59-.47,8.76,2.18,8.76,7.46Z"/>
    <path class="st0" d="M254.44,19.22h-.55c-.15,0-.28-.1-.33-.24l-.45-1.35c-.05-.14-.18-.24-.33-.24h-2.44c-.15,0-.28.1-.33.24l-.44,1.34c-.05.14-.18.24-.33.24h-.56c-.23,0-.4-.23-.33-.45l1.91-5.95c.05-.14.18-.24.33-.24h1.89c.15,0,.28.1.33.24l1.96,5.95c.07.22-.09.46-.33.46ZM252.53,15.88l-.66-1.97c-.11-.32-.56-.32-.66,0l-.64,1.97c-.07.22.09.45.33.45h1.29c.24,0,.4-.23.33-.46h.01Z"/>
    <path class="st0" d="M255.3,18.87v-5.95c0-.19.16-.35.35-.35h.55c.19,0,.35.16.35.35v5.95c0,.19-.16.35-.35.35h-.55c-.19,0-.35-.16-.35-.35Z"/>
    <path class="st0" d="M92.16,13.25v2.95c0,.28-.23.5-.5.5h-10.53c1.08,0,7.47.18,7.47,3.18v7.81c0,.87.73,1.6,1.56,1.6h1.5c.28,0,.5.23.5.5v3.46c0,.28-.23.5-.5.5h-2.96c-2.82,0-5.17-2.29-5.17-5.17v-9.07c0-2.82-2.56-2.82-2.56-2.82h0c-.28,0-.5-.23-.5-.5v-2.95c0-.28.23-.5.5-.5h2.05c.28,0,.5-.23.5-.5v-6.48c0-.28.23-.5.5-.5h4.07c.28,0,.5.23.5.5v6.48c0,.28.23.5.5.5h2.56c.28,0,.5.23.5.5h0Z"/>
  </g>
  <path class="st0" d="M31.38.1H8.16C3.71.1.11,3.71.11,8.15v23.22c0,4.45,3.61,8.05,8.05,8.05h23.22c4.45,0,8.05-3.61,8.05-8.05V8.15c0-4.44-3.6-8.05-8.05-8.05ZM7.16,6.39l.65-.58c.58-.52,1.47-.47,1.99.12.33.38.64.73.72.82.21.23.41.47.62.7l.67.76c.23.27.47.53.7.8.24.27.48.54.72.81.24.27.48.54.71.81.23.26.46.52.69.78.22.24.43.49.65.73.2.22.39.44.59.67.17.19.33.38.5.58.14.16.28.32.46.44.16.11.37.16.56.16.37,0,.66-.29.8-.61.05-.12.08-.24.09-.36.09-.84,0-3.89.02-6.34v-.62c0-.78.63-1.41,1.4-1.41h.82c.78,0,1.4.63,1.4,1.4v.47c0,.57-.02,2.33,0,4.12.02,1.32-.01,3.12-.24,3.92-.53,1.83-1.77,2.77-3.41,3.16-.86.21-2.57.31-4.16-1.39l-7.08-7.94c-.52-.58-.47-1.47.11-1.98l.02-.02ZM15.76,25.66l-7.94,7.08c-.58.52-1.47.47-1.98-.11l-.58-.65c-.52-.58-.47-1.47.12-1.99.38-.33.73-.65.82-.72.23-.21.47-.41.7-.62.25-.22.51-.45.76-.67.27-.23.53-.47.8-.7.27-.24.54-.48.81-.72s.54-.48.81-.71c.26-.23.52-.46.78-.69.24-.22.49-.43.73-.65.22-.2.44-.39.67-.59.19-.17.38-.33.58-.5.16-.14.32-.28.44-.46.11-.16.16-.37.16-.56,0-.37-.29-.66-.61-.8-.12-.05-.24-.08-.36-.09-.84-.09-3.89,0-6.34-.02h-.62c-.78,0-1.41-.63-1.41-1.4v-.82c0-.78.63-1.4,1.4-1.4h.47c.57,0,2.33.02,4.12,0,1.32-.02,3.12.01,3.92.24,1.83.53,2.77,1.77,3.16,3.41.21.86.31,2.57-1.39,4.16l-.02-.02ZM32.26,33.14l-.65.58c-.58.52-1.47.47-1.99-.12-.33-.38-.65-.73-.72-.82-.21-.23-.41-.47-.62-.7-.22-.25-.45-.51-.67-.76-.23-.27-.47-.53-.7-.8-.24-.27-.48-.54-.72-.81-.24-.27-.48-.54-.71-.81-.23-.26-.46-.52-.69-.78-.22-.24-.43-.49-.65-.73-.2-.22-.39-.44-.59-.67-.17-.19-.33-.38-.5-.58-.14-.16-.28-.32-.46-.44-.16-.11-.37-.16-.56-.16-.37,0-.66.29-.8.61-.05.12-.08.24-.09.36-.09.84,0,3.89-.02,6.34v.62c0,.78-.63,1.41-1.4,1.41h-.82c-.78,0-1.4-.63-1.4-1.4v-.47c0-.57.02-2.33,0-4.12-.02-1.32.01-3.12.24-3.92.53-1.83,1.77-2.77,3.41-3.16.86-.21,2.57-.31,4.16,1.39l7.08,7.94c.52.58.47,1.47-.11,1.98l-.02.02ZM35.47,20.27c0,.78-.63,1.4-1.4,1.4h-.47c-.57,0-2.33-.02-4.12,0-1.32.02-3.12-.01-3.92-.24-1.83-.53-2.77-1.77-3.16-3.41-.21-.86-.31-2.57,1.39-4.16l7.94-7.08c.58-.52,1.47-.47,1.98.11l.58.65c.52.58.47,1.47-.12,1.99-.38.33-.73.65-.82.72-.23.21-.47.41-.7.62l-.76.67c-.27.23-.53.47-.8.7-.27.24-.54.48-.81.72-.27.24-.54.48-.81.71-.26.23-.52.46-.78.69-.24.22-.49.43-.73.65-.22.2-.44.39-.67.59-.19.17-.38.33-.58.5-.16.14-.32.28-.44.46-.11.16-.16.37-.16.56,0,.37.29.66.61.8.12.05.24.08.36.09.84.09,3.89,0,6.34.02h.62c.78,0,1.41.63,1.41,1.4v.82l.02.02Z"/>
</svg>